<?xml version="1.0" encoding="iso-8859-1"?>
<!-- Generator: Adobe Illustrator 19.0.0, SVG Export Plug-In . SVG Version: 6.00 Build 0)  -->
<svg version="1.1" id="Capa_1" xmlns="http://www.w3.org/2000/svg" xmlns:xlink="http://www.w3.org/1999/xlink" x="0px" y="0px"
	 viewBox="0 0 512 512" style="enable-background:new 0 0 512 512;" xml:space="preserve">
<path style="fill:#2196F3;" d="M480,64H32C14.368,64,0,78.368,0,96v320c0,17.664,14.368,32,32,32h448c17.664,0,32-14.336,32-32V96
	C512,78.368,497.664,64,480,64z"/>
<g>
	<path style="fill:#FAFAFA;" d="M176,176c-8.832,0-16,7.168-16,16v60.224l-33.696-67.392c-3.328-6.624-10.816-10.144-17.984-8.416
		C101.12,178.112,96,184.576,96,192v128c0,8.832,7.168,16,16,16s16-7.168,16-16v-60.224l33.696,67.36
		C164.448,332.672,170.048,336,176,336c1.216,0,2.464-0.128,3.68-0.448c7.2-1.664,12.32-8.16,12.32-15.552V192
		C192,183.168,184.832,176,176,176z"/>
	<path style="fill:#FAFAFA;" d="M272,208c8.832,0,16-7.168,16-16s-7.168-16-16-16h-32c-8.832,0-16,7.168-16,16v128
		c0,8.832,7.168,16,16,16h32c8.832,0,16-7.168,16-16s-7.168-16-16-16h-16v-32h16c8.832,0,16-7.168,16-16s-7.168-16-16-16h-16v-32
		H272z"/>
	<path style="fill:#FAFAFA;" d="M400,176c-8.832,0-16,7.168-16,16v60.224l-1.696-3.36c-5.44-10.848-23.2-10.848-28.64,0l-1.664,3.36
		V192c0-8.832-7.168-16-16-16s-16,7.168-16,16v128c0,7.392,5.088,13.888,12.32,15.552c7.328,1.824,14.688-1.792,18.016-8.416
		L368,291.776l17.696,35.36c2.752,5.504,8.352,8.832,14.304,8.832c1.216,0,2.432-0.128,3.68-0.448
		c7.232-1.632,12.32-8.128,12.32-15.52V192C416,183.168,408.832,176,400,176z"/>
</g>
<g>
</g>
<g>
</g>
<g>
</g>
<g>
</g>
<g>
</g>
<g>
</g>
<g>
</g>
<g>
</g>
<g>
</g>
<g>
</g>
<g>
</g>
<g>
</g>
<g>
</g>
<g>
</g>
<g>
</g>
</svg>
